<svg xmlns="http://www.w3.org/2000/svg" width="570" height="890" viewBox="0 0 570 890">
  <rect width="570" height="890" fill="#fff"/>
  <text x="285" y="40" text-anchor="middle" font-family="Georgia, serif" font-size="26" fill="#111">36</text>
  <g stroke="#111" stroke-width="3.2" stroke-linecap="round" stroke-linejoin="round">
    <rect x="60" y="70" width="450" height="450" fill="none"/><polyline points="111.0,139.0 135.0,119.0 159.0,139.0" fill="none"/><polyline points="135.0,145.0 135.0,173.0" fill="none"/><circle cx="135.0" cy="145.0" r="6.5" fill="#111" stroke="none"/><polyline points="261.0,147.0 277.0,127.0 265.0,127.0" fill="none"/><polyline points="285.0,125.0 285.0,145.0" fill="none"/><polyline points="285.0,145.0 307.0,161.0" fill="none"/><circle cx="285.0" cy="145.0" r="6.5" fill="#111" stroke="none"/><polyline points="455.0,123.0 429.0,145.0 455.0,167.0" fill="none"/><circle cx="435.0" cy="145.0" r="6.5" fill="#111" stroke="none"/><polyline points="109.0,269.0 133.0,293.0" fill="none"/><polyline points="133.0,293.0 159.0,293.0 137.0,319.0 133.0,293.0" fill="none"/><circle cx="135.0" cy="295.0" r="6.5" fill="#111" stroke="none"/><polyline points="285.0,267.0 285.0,295.0" fill="none"/><polyline points="263.0,295.0 285.0,321.0 307.0,295.0" fill="none"/><circle cx="285.0" cy="295.0" r="6.5" fill="#111" stroke="none"/><polyline points="455.0,273.0 429.0,295.0 455.0,317.0" fill="none"/><polyline points="435.0,295.0 461.0,295.0" fill="none"/><circle cx="435.0" cy="295.0" r="6.5" fill="#111" stroke="none"/><polyline points="117.0,421.0 143.0,445.0 117.0,469.0" fill="none"/><polyline points="135.0,445.0 135.0,471.0" fill="none"/><circle cx="135.0" cy="445.0" r="6.5" fill="#111" stroke="none"/><polyline points="271.0,423.0 295.0,445.0 271.0,469.0" fill="none"/><polyline points="285.0,423.0 285.0,445.0" fill="none"/><circle cx="285.0" cy="445.0" r="6.5" fill="#111" stroke="none"/><polygon points="373.0,383.0 471.0,383.0 497.0,409.0 497.0,507.0 373.0,507.0" fill="none"/><text x="109.0" y="578" text-anchor="middle" font-family="Georgia, serif" font-size="19" fill="#111" stroke="none">1</text><polygon points="44,590 148,590 174,616 174,720 44,720" fill="none"/><polyline points="83.0,655.0 109.0,655.0" fill="none"/><polyline points="99.0,633.0 123.0,655.0 99.0,677.0" fill="none"/><circle cx="109.0" cy="655.0" r="6.5" fill="#111" stroke="none"/><text x="265.0" y="578" text-anchor="middle" font-family="Georgia, serif" font-size="19" fill="#111" stroke="none">2</text><polygon points="200,590 304,590 330,616 330,720 200,720" fill="none"/><circle cx="265.0" cy="655.0" r="6.5" fill="#111" stroke="none"/><text x="421.0" y="578" text-anchor="middle" font-family="Georgia, serif" font-size="19" fill="#111" stroke="none">3</text><polygon points="356,590 460,590 486,616 486,720 356,720" fill="none"/><polyline points="421.0,631.0 445.0,655.0 421.0,679.0 397.0,655.0 421.0,631.0" fill="none"/><circle cx="421.0" cy="655.0" r="6.5" fill="#111" stroke="none"/><text x="577.0" y="578" text-anchor="middle" font-family="Georgia, serif" font-size="19" fill="#111" stroke="none">4</text><polygon points="512,590 616,590 642,616 642,720 512,720" fill="none"/><polyline points="555.0,655.0 577.0,631.0 599.0,655.0 555.0,655.0" fill="none"/><polyline points="577.0,655.0 577.0,683.0" fill="none"/><circle cx="577.0" cy="655.0" r="6.5" fill="#111" stroke="none"/><text x="109.0" y="768" text-anchor="middle" font-family="Georgia, serif" font-size="19" fill="#111" stroke="none">5</text><polygon points="44,780 148,780 174,806 174,910 44,910" fill="none"/><polyline points="85.0,847.0 109.0,823.0 133.0,847.0" fill="none"/><polyline points="109.0,845.0 109.0,873.0" fill="none"/><circle cx="109.0" cy="845.0" r="6.5" fill="#111" stroke="none"/><text x="265.0" y="768" text-anchor="middle" font-family="Georgia, serif" font-size="19" fill="#111" stroke="none">6</text><polygon points="200,780 304,780 330,806 330,910 200,910" fill="none"/><polyline points="265.0,821.0 289.0,845.0 265.0,869.0 241.0,845.0 265.0,821.0" fill="none"/><polyline points="265.0,821.0 265.0,869.0" fill="none"/><polyline points="241.0,845.0 289.0,845.0" fill="none"/><circle cx="265.0" cy="845.0" r="6.5" fill="#111" stroke="none"/><text x="421.0" y="768" text-anchor="middle" font-family="Georgia, serif" font-size="19" fill="#111" stroke="none">7</text><polygon points="356,780 460,780 486,806 486,910 356,910" fill="none"/><polyline points="421.0,821.0 421.0,869.0" fill="none"/><polyline points="397.0,845.0 445.0,845.0" fill="none"/><circle cx="421.0" cy="845.0" r="6.5" fill="#111" stroke="none"/><text x="577.0" y="768" text-anchor="middle" font-family="Georgia, serif" font-size="19" fill="#111" stroke="none">8</text><polygon points="512,780 616,780 642,806 642,910 512,910" fill="none"/><polyline points="577.0,817.0 577.0,845.0" fill="none"/><polyline points="555.0,845.0 577.0,871.0 599.0,845.0" fill="none"/><circle cx="577.0" cy="845.0" r="6.5" fill="#111" stroke="none"/>
  </g>
</svg>